<?xml version="1.0" encoding="UTF-8" standalone="no"?>
<svg
   width="400"
   height="100"
   viewBox="0 0 400 100"
   version="1.1"
   id="svg1"
   xmlns="http://www.w3.org/2000/svg"
   xmlns:svg="http://www.w3.org/2000/svg">
  <defs
     id="defs1" />
  <path
     d="m 208.28444,30.369331 h -0.65625 l -5.06543,-3.219726 -2.74805,1.435547 2.46094,1.763672 q -1.0459,1.168945 -1.76367,1.168945 h -0.041 q -0.67676,0 -1.37402,-0.533203 l -2.48145,-1.948242 v -1.148438 l 7.19825,-3.670898 h 0.82031 l 4.38867,2.768554 3.1582,-2.768554 h 0.82032 l 4.08105,2.501953 q 0.90234,0.553711 1.92774,0.553711 h 1.16894 q -1.16894,3.096679 -2.58398,3.096679 -1.43555,0 -2.83008,-0.84082 l -3.24024,-2.030273 z m -6.0293,19.666993 1.35352,-1.333008 q 0.59472,-0.615235 0.90234,-1.209961 0.30762,-0.615235 0.30762,-1.230469 0,-0.512695 -0.38965,-0.758789 -0.38965,-0.266602 -1.14844,-0.266602 h -1.02539 z m 12.30469,-12.489258 q 0,-1.538086 -1.14844,-2.296875 -1.16894,-0.779297 -3.46582,-0.779297 h -3.07617 q -2.29687,0 -3.46582,0.779297 -1.14844,0.758789 -1.14844,2.296875 v 5.639648 h 1.02539 q 1.78418,0 2.68653,0.758789 0.90234,0.779297 0.90234,2.317383 0,1.045898 -0.41016,1.989258 -0.41015,0.943359 -1.23046,1.743164 l -2.97364,2.932617 h -3.58886 V 37.547066 q 0,-2.563477 2.05078,-3.855469 2.05078,-1.271484 6.15234,-1.271484 h 3.07617 q 4.10156,0 6.15235,1.271484 2.05078,1.291992 2.05078,3.855469 v 15.380859 h -3.58887 z m -22.0459,25.634765 q 3.34277,0 5.00391,-0.779297 1.66113,-0.758789 1.66113,-2.296875 v -4.101562 q 0,-1.025391 1.53809,-1.025391 1.53808,0 1.53808,1.025391 v 4.101562 q 0,2.563477 -2.44043,3.855469 -2.44043,1.271485 -7.30078,1.271485 -4.86035,0 -7.30078,-1.271485 -2.44043,-1.291992 -2.44043,-3.855469 V 33.937691 l -3.58887,-2.276367 v -1.3125 l 4.77832,-6.131836 2.85059,1.763671 q 1.25098,0.799805 2.1123,0.799805 h 1.02539 q -1.70214,3.076172 -2.72753,3.076172 -1.00489,0 -2.11231,-0.697266 l -1.62012,-1.004882 -1.98925,2.542968 4.86035,3.076172 v 26.332031 q 0,1.538086 1.53808,2.296875 1.53809,0.779297 4.61426,0.779297 z m 9.20801,-46.224609 q 0,-2.666016 1.45605,-3.999023 1.47657,-1.333008 4.40918,-1.333008 1.72266,0 3.77344,0.902343 2.03027,0.902344 4.42969,2.666016 v -4.306641 h 2.33789 v 8.203125 h -12.89941 q -1.74317,0 -2.625,-0.533203 -0.88184,-0.533203 -0.88184,-1.599609 z m 5.86523,-2.112305 q -1.16894,0 -1.76367,0.512696 -0.59472,0.553711 -0.59472,1.599609 h 9.14648 q -1.39453,-1.045898 -3.09668,-1.599609 -1.68164,-0.512696 -3.69141,-0.512696 z"
     id="text1"
     style="font-size:42px;font-family:'Kantumruy Pro', 'Khmer OS', 'Khmer OS Content', sans-serif;dominant-baseline:middle;text-anchor:middle;display:inline;fill:#ffd700"
     aria-label="ត្រី" />
</svg>
